/vscmnt/brussel_pixiu_data/_data_brussel/112/vsc11236/PredSimResults/SUBJ10_Dhondt2024_3seg/weighted/worker_03.mot
version=1
nRows=4
nColumns=124
inDegrees=yes
endheader
                time	         pelvis_tilt	         pelvis_list	     pelvis_rotation	           pelvis_tx	           pelvis_ty	           pelvis_tz	       hip_flexion_r	     hip_adduction_r	      hip_rotation_r	        knee_angle_r	       ankle_angle_r	    subtalar_angle_r	         mtp_angle_r	       hip_flexion_l	     hip_adduction_l	      hip_rotation_l	        knee_angle_l	       ankle_angle_l	    subtalar_angle_l	         mtp_angle_l	    lumbar_extension	      lumbar_bending	     lumbar_rotation	          arm_flex_r	           arm_add_r	           arm_rot_r	        elbow_flex_r	          arm_flex_l	           arm_add_l	           arm_rot_l	        elbow_flex_l	glut_med1_r/activation	glut_med2_r/activation	glut_med3_r/activation	glut_min1_r/activation	glut_min2_r/activation	glut_min3_r/activation	semimem_r/activation	semiten_r/activation	bifemlh_r/activation	bifemsh_r/activation	    sar_r/activation	add_long_r/activation	add_brev_r/activation	add_mag1_r/activation	add_mag2_r/activation	add_mag3_r/activation	    tfl_r/activation	   pect_r/activation	   grac_r/activation	glut_max1_r/activation	glut_max2_r/activation	glut_max3_r/activation	iliacus_r/activation	  psoas_r/activation	quad_fem_r/activation	    gem_r/activation	   peri_r/activation	rect_fem_r/activation	vas_med_r/activation	vas_int_r/activation	vas_lat_r/activation	med_gas_r/activation	lat_gas_r/activation	 soleus_r/activation	tib_post_r/activation	flex_dig_r/activation	flex_hal_r/activation	tib_ant_r/activation	per_brev_r/activation	per_long_r/activation	per_tert_r/activation	ext_dig_r/activation	ext_hal_r/activation	glut_med1_l/activation	glut_med2_l/activation	glut_med3_l/activation	glut_min1_l/activation	glut_min2_l/activation	glut_min3_l/activation	semimem_l/activation	semiten_l/activation	bifemlh_l/activation	bifemsh_l/activation	    sar_l/activation	add_long_l/activation	add_brev_l/activation	add_mag1_l/activation	add_mag2_l/activation	add_mag3_l/activation	    tfl_l/activation	   pect_l/activation	   grac_l/activation	glut_max1_l/activation	glut_max2_l/activation	glut_max3_l/activation	iliacus_l/activation	  psoas_l/activation	quad_fem_l/activation	    gem_l/activation	   peri_l/activation	rect_fem_l/activation	vas_med_l/activation	vas_int_l/activation	vas_lat_l/activation	med_gas_l/activation	lat_gas_l/activation	 soleus_l/activation	tib_post_l/activation	flex_dig_l/activation	flex_hal_l/activation	tib_ant_l/activation	per_brev_l/activation	per_long_l/activation	per_tert_l/activation	ext_dig_l/activation	ext_hal_l/activation	 ercspn_r/activation	 ercspn_l/activation	 intobl_r/activation	 intobl_l/activation	 extobl_r/activation	 extobl_l/activation	
          1.59840977	         -2.91756453	          0.23897177	         -2.34893454	          1.79021895	          0.82108252	          0.00158425	        -16.85549451	          2.02129051	          9.91242667	         -5.81471281	          5.71844562	         11.64508140	         13.56842858	         29.23751803	          2.97398950	          4.32057424	        -13.28932171	          8.40521971	         -1.30916668	          0.23563644	         -5.63238814	          0.43147461	          1.23320796	         26.77095878	        -13.46000283	         13.39626838	         49.27819658	        -29.76313833	        -14.20232638	          3.38019233	         30.10065178	          0.20736358	          0.09603057	          0.05516218	          0.26912363	          0.22032727	          0.13741791	          0.01170265	          0.01115934	          0.01175841	          0.03092688	          0.08921193	          0.01000379	          0.01000462	          0.01001178	          0.01004608	          0.01003663	          0.34157694	          0.01001599	          0.01002954	          0.01665975	          0.01620814	          0.01135033	          0.19685452	          0.36789369	          0.01632571	          0.01634477	          0.05122661	          0.21767753	          0.01000932	          0.01001163	          0.01000945	          0.30045785	          0.33562686	          0.26102271	          0.24081823	          0.31879719	          0.37671341	          0.01387007	          0.02582983	          0.17585956	          0.01280802	          0.01331850	          0.01387825	          0.01386791	          0.01153311	          0.01004150	          0.01289429	          0.01003060	          0.01003129	          0.12670142	          0.01482169	          0.02252901	          0.01001815	          0.01689445	          0.08143119	          0.14980247	          0.11252609	          0.13076009	          0.09464142	          0.01000925	          0.01892697	          0.05559323	          0.01180232	          0.01238069	          0.06495147	          0.01829875	          0.01678152	          0.01704064	          0.01004964	          0.01001149	          0.01000191	          0.07495843	          0.07685177	          0.06361923	          0.01059202	          0.01003251	          0.01177562	          0.01000347	          0.01001057	          0.01001959	          0.29434906	          0.20505967	          0.12101391	          0.09535835	          0.29652904	          0.03516101	          0.01000021	          0.01386742	          0.01000454	          0.02757937	          0.01000604	          0.09018877	
          1.60906584	         -2.90643760	          0.47024396	         -2.50411130	          1.80462382	          0.82058098	          0.00134635	        -16.81949602	          1.78052532	          9.79051041	         -7.60029108	          4.87348818	         11.99671728	         14.60155932	         28.63385651	          3.42043430	          4.37188830	        -13.14227954	          7.67628495	         -1.42762044	          0.24011783	         -5.47713874	         -0.01497212	          1.29256717	         26.73881319	        -13.45830139	         13.39256139	         50.50867240	        -30.86908074	        -14.16130464	          3.31622517	         30.21533718	          0.24585914	          0.08154793	          0.04684300	          0.24752158	          0.18710028	          0.11669376	          0.01002752	          0.01000333	          0.01000262	          0.02626319	          0.07576028	          0.04267466	          0.01001409	          0.01001478	          0.01003367	          0.01000882	          0.29006422	          0.07439646	          0.01083212	          0.01415193	          0.01376924	          0.01001606	          0.16716858	          0.31241069	          0.01386481	          0.01388245	          0.04350113	          0.19453159	          0.01000552	          0.01000733	          0.01000639	          0.25514423	          0.28501015	          0.24209922	          0.23153105	          0.27509928	          0.34146587	          0.01177833	          0.02195106	          0.17437998	          0.01087714	          0.01131011	          0.01178574	          0.01177788	          0.01176698	          0.01000259	          0.01177963	          0.01177817	          0.01023648	          0.10759349	          0.01258739	          0.01913191	          0.01000260	          0.01435183	          0.06937706	          0.14918983	          0.17080565	          0.15228241	          0.08611481	          0.01002803	          0.02343411	          0.04721448	          0.01002543	          0.01051462	          0.05516281	          0.01632413	          0.01436006	          0.15267909	          0.01001004	          0.01000732	          0.01386948	          0.09787126	          0.08529408	          0.09365414	          0.01000024	          0.01000054	          0.01000012	          0.01000126	          0.01001010	          0.01000456	          0.29760048	          0.17572375	          0.11238684	          0.13268603	          0.32011609	          0.04477210	          0.01442783	          0.01177620	          0.02989339	          0.02342008	          0.01000354	          0.07658696	
          1.61972190	         -2.89139258	          0.71004108	         -2.64716425	          1.81926243	          0.82008003	          0.00111587	        -16.67752093	          1.54518943	          9.66106668	         -9.57148128	          3.84968048	         12.33640506	         15.63909359	         27.99264064	          3.84395717	          4.45322752	        -13.53518885	          6.69470342	         -1.52599397	          0.24187803	         -5.30962580	         -0.47407639	          1.34340593	         26.57153736	        -13.45942674	         13.34433548	         51.64510914	        -31.74671697	        -14.11026994	          3.41593563	         29.90621203	          0.20878146	          0.06924943	          0.03977846	          0.21019670	          0.15888370	          0.09909497	          0.01392713	          0.01006753	          0.01007759	          0.02230276	          0.06433589	          0.09024833	          0.01501289	          0.01179069	          0.01176481	          0.01179661	          0.24631950	          0.07103023	          0.01010578	          0.01202261	          0.01170312	          0.01008702	          0.14195778	          0.26529530	          0.01177498	          0.01179130	          0.03694072	          0.16519658	          0.02921012	          0.01626425	          0.01188959	          0.21666448	          0.24202641	          0.20558797	          0.20081467	          0.23361528	          0.28997310	          0.01000214	          0.01865335	          0.18121208	          0.01000171	          0.01000058	          0.01000936	          0.01000197	          0.01000179	          0.01497033	          0.01000442	          0.01000421	          0.01000331	          0.09136705	          0.07107702	          0.04601894	          0.01640731	          0.01381438	          0.05891802	          0.13279295	          0.14506761	          0.12932383	          0.07312946	          0.01000762	          0.01993981	          0.10763665	          0.01004504	          0.02959510	          0.04684715	          0.01386673	          0.01386603	          0.16534071	          0.02185317	          0.01155776	          0.01177860	          0.08311144	          0.07243118	          0.07953028	          0.01633308	          0.01650160	          0.01389550	          0.01228575	          0.01180353	          0.01494794	          0.25271800	          0.17896711	          0.11371564	          0.11267579	          0.29022850	          0.03802046	          0.02673254	          0.01000036	          0.02777401	          0.01988808	          0.01387285	          0.06503650	
          1.63037797	         -2.87388150	          0.96944225	         -2.77518056	          1.83401353	          0.81961076	          0.00090061	        -16.40748067	          1.30951763	          9.51351443	        -11.74430368	          2.63921054	         12.64151034	         16.62331292	         27.30787733	          4.23235193	          4.57669768	        -14.05267795	          5.61298116	         -1.60976420	          0.24201252	         -5.13812617	         -0.95606321	          1.38520286	         26.29217736	        -13.46423632	         13.28353492	         52.65965260	        -32.37441039	        -14.05935363	          3.69337378	         29.18201335	          0.21573412	          0.05880576	          0.03377937	          0.25071308	          0.13492306	          0.08415038	          0.01687320	          0.01000344	          0.01000252	          0.01893967	          0.05463453	          0.07665026	          0.01275320	          0.01002403	          0.01004541	          0.01003659	          0.20917365	          0.06033904	          0.01000895	          0.01021560	          0.01000986	          0.01000751	          0.12054922	          0.22528871	          0.01000175	          0.01001620	          0.03136973	          0.14363079	          0.02481025	          0.01381931	          0.01010210	          0.18398806	          0.20552517	          0.17458208	          0.17053023	          0.19838488	          0.24624274	          0.01000047	          0.06328129	          0.15604143	          0.01000370	          0.01000137	          0.01000322	          0.19140661	          0.21396211	          0.22170753	          0.15721586	          0.02655762	          0.09636729	          0.07758771	          0.06036985	          0.03908650	          0.01394307	          0.01173915	          0.05003411	          0.11278035	          0.12320140	          0.10985348	          0.08972460	          0.01001495	          0.01694699	          0.09141298	          0.16627205	          0.05650805	          0.05561013	          0.01177759	          0.01177717	          0.14040657	          0.01856095	          0.01000737	          0.01000326	          0.07058407	          0.06151129	          0.11405543	          0.01386992	          0.01401315	          0.01179990	          0.01043301	          0.01002426	          0.01269438	          0.38101227	          0.23020026	          0.11889425	          0.47540684	          0.38476861	          0.22504263	          0.05330957	          0.02878731	          0.02358534	          0.01688883	          0.01178078	          0.05522803	
